# xmcd
#
# Track frame offsets:
# 150
# 11294
# 34471
# 34888
# 55558
# 67060
# 79402
# 92218
# 109451
# 117107
# 131879
# 147307
# 157780
# 171107
# 177397
# 194995
#
# Disc length: 2865 seconds
#
# Revision: 1
# Processed by: cddbd v1.4PL0 Copyright (c) Steve Scherf et al.
# Submitted via: CedeCatalogueitor 2.5 http://usuarios.lycos.es/kakasboy
#
DISCID=ea0b2f10
DTITLE=Calexico - Feast of Wire 
DYEAR=2003
DGENRE=
TTITLE0=Sunken Waltz
TTITLE1=Quattro (World Drifts In)
TTITLE2=Stucco
TTITLE3=Black Heart
TTITLE4=Pepita
TTITLE5=Not Even Stevie Nicks...
TTITLE6=Close Behind
TTITLE7=Woven Birds
TTITLE8=The Book and the Canal
TTITLE9=Attack el Robot! Attack!
TTITLE10=Across the Wire
TTITLE11=Dub Latina
TTITLE12=Güero Canelo
TTITLE13=Whipping the Horse's Eyes
TTITLE14=Crumble
TTITLE15=No Doze
EXTD=
EXTT0=
EXTT1=
EXTT2=
EXTT3=
EXTT4=
EXTT5=
EXTT6=
EXTT7=
EXTT8=
EXTT9=
EXTT10=
EXTT11=
EXTT12=
EXTT13=
EXTT14=
EXTT15=
PLAYORDER=
